<svg width="1341" height="1371" viewBox="0 0 1341 1371" fill="none" xmlns="http://www.w3.org/2000/svg">
<g filter="url(#filter0_f_75_11)">
<path fill-rule="evenodd" clip-rule="evenodd" d="M705.311 446.437C776.612 442.695 852.037 375.073 909.702 409.97C967.431 444.907 927.074 523.215 929.887 582.345C931.822 623.028 933.521 661.512 923.564 701.384C912.282 746.564 899.511 790.158 868.429 828.46C823.351 884.008 785.348 979.912 705.311 970.333C620.211 960.148 634.173 843.305 573.221 793.128C527.708 755.661 429.837 772.449 405.305 723.361C381.092 674.914 446.516 628.268 465.882 578.352C485.352 528.168 465.908 459.695 518.932 430.481C572.222 401.121 641.415 449.791 705.311 446.437Z" fill="#1976D2"/>
</g>
<defs>
<filter id="filter0_f_75_11" x="0" y="0" width="1341" height="1371" filterUnits="userSpaceOnUse" color-interpolation-filters="sRGB">
<feFlood flood-opacity="0" result="BackgroundImageFix"/>
<feBlend mode="normal" in="SourceGraphic" in2="BackgroundImageFix" result="shape"/>
<feGaussianBlur stdDeviation="200" result="effect1_foregroundBlur_75_11"/>
</filter>
</defs>
</svg>
