<svg width="1512" height="1381" viewBox="0 0 1512 1381" fill="none" xmlns="http://www.w3.org/2000/svg">
<g filter="url(#filter0_f_75_7)">
<path fill-rule="evenodd" clip-rule="evenodd" d="M1230.51 651.568C1222.1 710.88 1081.86 716.772 1037.54 768.409C983.416 831.482 1050.6 940.842 953.912 973.873C862.849 1004.98 768.796 926.355 682.401 889.74C617.663 862.304 573.422 823.037 516.658 788.561C439.429 741.655 317.537 719.012 290.262 651.568C261.899 581.432 300.734 497.813 378.662 447.327C453.79 398.655 572.243 397.604 676.547 401.31C755.713 404.123 815.289 444.161 887.952 465.423C950.826 483.821 1019.87 488.404 1073.17 517.367C1140.75 554.089 1238.75 593.494 1230.51 651.568Z" fill="#1976D2"/>
</g>
<defs>
<filter id="filter0_f_75_7" x="-119" y="0" width="1750" height="1381" filterUnits="userSpaceOnUse" color-interpolation-filters="sRGB">
<feFlood flood-opacity="0" result="BackgroundImageFix"/>
<feBlend mode="normal" in="SourceGraphic" in2="BackgroundImageFix" result="shape"/>
<feGaussianBlur stdDeviation="200" result="effect1_foregroundBlur_75_7"/>
</filter>
</defs>
</svg>
